<?xml version="1.0" standalone="no"?>
<!DOCTYPE svg PUBLIC "-//W3C//DTD SVG 20010904//EN"
 "http://www.w3.org/TR/2001/REC-SVG-20010904/DTD/svg10.dtd">
<svg version="1.0" xmlns="http://www.w3.org/2000/svg"
 width="1600.000000pt" height="771.000000pt" viewBox="0 0 1600.000000 771.000000"
 preserveAspectRatio="xMidYMid meet">

<g transform="translate(0.000000,771.000000) scale(0.100000,-0.100000)"
fill="#000000" stroke="none">
<path d="M6365 7659 c-161 -28 -271 -59 -405 -117 -76 -32 -217 -107 -230
-122 -3 -3 -32 -23 -64 -45 -135 -90 -331 -304 -433 -472 -70 -116 -138 -280
-181 -438 -136 -499 2 -1102 342 -1499 78 -92 999 -1005 1035 -1027 41 -25
140 -26 179 -2 82 51 115 150 78 236 -8 20 -205 224 -501 518 -267 266 -512
518 -543 559 -278 368 -348 838 -189 1261 127 338 409 614 742 726 144 49 234
63 404 63 187 0 394 -39 499 -94 23 -12 21 -14 -44 -52 -261 -152 -421 -460
-401 -772 4 -53 13 -121 21 -151 22 -80 87 -208 139 -275 78 -99 966 -987
1003 -1002 76 -32 168 -6 220 62 36 47 43 131 17 186 -11 22 -204 224 -473
495 -251 252 -470 478 -487 504 -117 169 -88 415 66 570 97 96 222 124 362 78
115 -37 165 -74 344 -254 137 -137 178 -173 211 -183 56 -16 82 -15 129 7 100
46 141 152 95 245 -33 67 -534 568 -662 662 -315 233 -663 346 -1057 343 -91
-1 -188 -5 -216 -10z"/>
<path d="M6377 5899 c-69 -36 -106 -125 -85 -204 12 -44 53 -87 548 -579 653
-651 865 -857 893 -873 119 -65 269 26 269 162 0 81 3 78 -714 787 -379 376
-706 693 -726 705 -48 30 -131 30 -185 2z"/>
<path d="M5971 5498 c-28 -14 -54 -37 -72 -67 -53 -83 -32 -180 59 -262 40
-36 377 -365 1122 -1095 203 -199 245 -221 345 -175 99 44 138 156 90 251 -28
53 -1342 1335 -1389 1355 -50 21 -104 19 -155 -7z"/>
<path d="M13011 3179 c-65 -12 -115 -50 -142 -106 l-24 -48 -3 -1269 c-1 -830
1 -1281 8 -1305 15 -57 51 -103 100 -131 39 -21 58 -25 140 -25 85 0 100 3
141 27 45 27 76 66 94 118 4 14 11 116 14 227 l6 203 120 -106 c66 -59 156
-139 200 -179 44 -39 100 -89 125 -111 24 -21 65 -58 90 -82 79 -75 124 -96
206 -96 62 0 78 4 120 30 88 53 135 155 118 251 -10 59 -47 115 -112 169 -56
47 -405 347 -428 369 -6 5 -54 48 -108 94 -53 46 -96 87 -96 91 0 4 12 16 27
25 22 15 175 131 233 178 16 13 111 85 270 206 106 81 146 131 156 196 24 166
-119 305 -290 282 -54 -8 -115 -42 -182 -102 -6 -5 -66 -53 -134 -105 -67 -52
-166 -129 -219 -172 l-96 -76 -5 641 c-3 375 -10 652 -15 667 -48 122 -156
170 -314 139z"/>
<path d="M6390 2921 c-8 -5 -28 -15 -43 -22 -45 -21 -91 -70 -116 -124 -21
-44 -23 -190 -4 -247 19 -58 71 -114 132 -142 64 -29 188 -28 252 2 56 26 132
101 124 121 -3 9 -3 12 1 8 15 -15 34 57 34 128 0 124 -52 207 -164 260 -42
20 -68 25 -127 24 -41 0 -81 -4 -89 -8z"/>
<path d="M15260 2323 c-245 -16 -427 -156 -485 -374 -21 -78 -19 -243 3 -311
49 -147 165 -266 382 -388 124 -70 176 -105 223 -149 54 -50 67 -80 67 -153 0
-55 -4 -68 -27 -96 -38 -44 -103 -60 -167 -42 -57 16 -88 50 -111 125 -53 167
-253 215 -411 99 -71 -52 -97 -201 -56 -321 55 -157 214 -295 420 -364 87 -29
108 -33 212 -32 124 0 187 13 293 60 158 70 274 201 323 368 23 80 24 278 1
352 -61 199 -195 343 -422 454 -179 87 -246 140 -265 207 -9 37 -8 49 7 80 41
84 114 65 192 -52 59 -87 90 -111 160 -128 43 -10 60 -9 105 5 69 22 115 54
140 97 18 29 21 52 21 140 0 108 -12 147 -63 213 -112 143 -321 224 -542 210z"/>
<path d="M7780 2241 c-237 -34 -468 -182 -610 -391 -147 -217 -209 -503 -165
-760 31 -180 65 -268 159 -410 95 -145 236 -264 400 -340 123 -57 192 -72 356
-77 228 -8 372 32 479 132 l49 46 18 -52 c22 -60 86 -123 135 -133 102 -20
187 4 251 70 77 81 73 29 76 874 4 832 2 857 -51 938 -56 83 -164 119 -263 88
-69 -22 -104 -52 -137 -119 l-26 -54 -47 43 c-105 96 -241 141 -444 148 -69 3
-150 1 -180 -3z m261 -491 c192 -36 339 -197 377 -412 14 -80 14 -96 0 -177
-17 -95 -35 -140 -82 -211 -88 -132 -217 -200 -376 -200 -131 1 -231 42 -320
131 -202 205 -200 539 6 745 110 110 244 152 395 124z"/>
<path d="M11260 2244 c-138 -16 -216 -44 -301 -109 -57 -44 -59 -44 -73 -24
-8 12 -32 33 -53 47 -34 24 -47 27 -123 26 -133 0 -189 -36 -227 -144 -10 -27
-13 -215 -13 -805 0 -753 1 -771 21 -815 43 -95 96 -124 224 -124 101 1 155
20 195 71 50 64 50 61 50 602 0 536 1 545 49 638 23 47 74 94 134 125 32 16
61 22 122 22 l80 1 103 -70 c96 -64 108 -69 166 -73 52 -3 71 0 113 21 123 63
177 188 138 322 -30 105 -160 210 -325 264 -64 21 -205 34 -280 25z"/>
<path d="M2675 2205 c-55 -8 -116 -18 -135 -23 -283 -77 -507 -260 -635 -520
-72 -146 -97 -261 -97 -447 0 -167 22 -274 81 -400 125 -267 347 -449 641
-527 96 -26 344 -36 434 -18 231 46 413 127 551 244 121 103 164 176 165 277
0 81 -17 126 -65 168 -52 45 -98 61 -179 61 -80 0 -107 -13 -216 -101 -175
-142 -277 -177 -470 -166 -136 8 -233 46 -318 122 -56 51 -112 151 -112 202
l0 30 428 6 c235 3 506 4 602 2 96 -2 199 1 229 7 119 21 201 115 201 229 0
141 -131 401 -287 569 -159 171 -331 257 -573 286 -133 16 -116 16 -245 -1z
m220 -455 c74 -12 207 -76 258 -125 41 -39 97 -121 97 -142 0 -10 -89 -13
-465 -13 -527 0 -497 -5 -429 80 49 62 136 124 223 161 112 47 201 58 316 39z"/>
<path d="M6395 2183 c-32 -5 -79 -35 -108 -68 -48 -52 -47 -38 -47 -879 l1
-791 23 -45 c15 -30 38 -55 70 -74 44 -28 55 -30 145 -30 84 0 102 3 141 25
49 27 85 73 100 130 7 25 10 306 8 806 -3 765 -3 768 -25 813 -38 81 -91 111
-202 115 -42 2 -89 1 -106 -2z"/>
</g>
</svg>
