<?xml version="1.0" standalone="no"?>
<!DOCTYPE svg PUBLIC "-//W3C//DTD SVG 20010904//EN"
 "http://www.w3.org/TR/2001/REC-SVG-20010904/DTD/svg10.dtd">
<svg version="1.0" xmlns="http://www.w3.org/2000/svg"
 width="736.000000pt" height="769.000000pt" viewBox="0 0 736.000000 769.000000"
 preserveAspectRatio="xMidYMid meet">

<g transform="translate(0.000000,769.000000) scale(0.100000,-0.100000)"
fill="#000000" stroke="none">
<path d="M1332 7350 c-59 -14 -112 -57 -138 -113 l-24 -52 0 -450 c0 -289 4
-464 11 -489 15 -54 83 -119 141 -135 93 -26 193 15 243 99 19 34 20 52 23
500 3 500 2 509 -50 575 -40 51 -137 82 -206 65z"/>
<path d="M4685 7351 c-72 -18 -123 -60 -150 -123 -13 -32 -15 -105 -15 -503 0
-441 1 -468 19 -504 37 -72 115 -121 192 -121 68 0 148 50 182 114 22 41 22
47 22 516 l0 475 -24 42 c-29 50 -84 91 -138 104 -43 10 -47 10 -88 0z"/>
<path d="M687 6509 c-123 -29 -246 -127 -302 -243 -19 -39 -39 -100 -45 -136
-14 -89 -13 -3719 0 -3814 27 -186 171 -344 351 -385 28 -7 492 -11 1307 -11
l1262 0 0 210 0 210 -1245 0 c-1221 0 -1244 0 -1255 19 -7 14 -9 480 -8 1463
l3 1443 2295 0 2295 0 5 -415 5 -415 208 -3 207 -2 0 853 c0 946 3 905 -66
1019 -62 102 -176 184 -291 208 -27 6 -98 9 -158 8 l-110 -3 -1 -135 c0 -156
-16 -221 -73 -302 -82 -117 -199 -181 -336 -182 -137 -1 -258 56 -338 160 -66
86 -80 138 -85 312 l-4 152 -1253 0 -1253 0 -3 -152 c-4 -152 -4 -154 -40
-228 -63 -131 -173 -215 -313 -241 -211 -39 -436 119 -475 335 -6 33 -11 111
-11 173 l0 113 -117 -1 c-65 -1 -135 -5 -156 -10z"/>
<path d="M1170 4430 l0 -420 420 0 420 0 0 420 0 420 -420 0 -420 0 0 -420z"/>
<path d="M2430 4430 l0 -420 415 0 415 0 0 420 0 420 -415 0 -415 0 0 -420z"/>
<path d="M3680 4430 l0 -420 420 0 420 0 0 420 0 420 -420 0 -420 0 0 -420z"/>
<path d="M5185 4004 c-249 -36 -397 -80 -586 -174 -578 -288 -949 -923 -915
-1565 37 -701 491 -1301 1147 -1515 193 -63 272 -74 524 -74 198 0 244 3 330
22 375 81 710 279 942 556 194 231 323 503 375 790 29 161 31 434 4 576 -54
282 -177 554 -345 765 -64 80 -208 218 -296 284 -227 170 -433 261 -715 316
-82 16 -397 29 -465 19z m372 -429 c261 -42 490 -161 683 -353 112 -112 184
-214 250 -356 77 -166 107 -287 116 -471 36 -708 -535 -1307 -1246 -1306 -266
0 -484 65 -705 209 -96 64 -250 215 -325 320 -266 374 -302 868 -95 1282 179
356 521 609 912 675 107 18 299 18 410 0z"/>
<path d="M6026 2795 c-46 -16 -12 15 -458 -428 l-361 -359 -241 240 c-198 197
-248 242 -281 251 -138 38 -262 -41 -273 -174 -8 -103 -5 -108 361 -471 302
-301 336 -332 379 -344 57 -15 108 -7 163 25 62 37 951 932 970 977 35 86 10
187 -60 246 -61 50 -128 62 -199 37z"/>
<path d="M1170 3175 l0 -415 420 0 420 0 0 415 0 415 -420 0 -420 0 0 -415z"/>
<path d="M2430 3175 l0 -415 415 0 415 0 0 415 0 415 -415 0 -415 0 0 -415z"/>
</g>
</svg>
