<?xml version="1.0" standalone="no"?>
<!DOCTYPE svg PUBLIC "-//W3C//DTD SVG 20010904//EN"
 "http://www.w3.org/TR/2001/REC-SVG-20010904/DTD/svg10.dtd">
<svg version="1.0" xmlns="http://www.w3.org/2000/svg"
 width="512.000000pt" height="512.000000pt" viewBox="0 0 512.000000 512.000000"
 preserveAspectRatio="xMidYMid meet">

<g transform="translate(0.000000,512.000000) scale(0.100000,-0.100000)"
fill="#000000" stroke="none">
<path d="M2490 5104 c-73 -20 -153 -69 -202 -124 -42 -46 -98 -151 -98 -182 0
-17 -17 -18 -224 -18 -125 0 -236 -4 -251 -10 -31 -12 -55 -63 -55 -119 l0
-40 -477 -3 c-464 -3 -479 -4 -524 -24 -64 -30 -125 -88 -157 -148 l-27 -51 0
-2080 0 -2080 24 -45 c32 -61 86 -116 146 -148 l50 -27 1865 0 1865 0 50 27
c60 32 114 87 146 148 l24 45 0 2080 0 2080 -27 51 c-32 60 -93 118 -157 148
-44 20 -61 21 -483 24 l-438 3 0 55 c0 48 -4 60 -29 85 l-29 29 -230 0 -230 0
-16 46 c-24 70 -59 125 -114 176 -111 104 -257 141 -402 102z m226 -182 c80
-41 129 -114 140 -208 5 -41 14 -65 30 -81 23 -23 27 -23 254 -23 l230 0 0
-255 0 -255 -764 0 -764 0 -4 248 c-2 136 -2 250 0 255 2 4 104 7 227 7 218 0
225 1 250 23 20 17 28 36 35 85 20 146 130 238 271 228 30 -2 73 -13 95 -24z
m-1056 -567 l0 -84 -401 -3 -401 -3 -24 -28 -24 -28 0 -1905 0 -1906 29 -29
29 -29 1269 0 1268 0 452 453 453 452 0 1482 0 1482 -24 28 -24 28 -361 3
-361 3 0 85 0 85 424 -3 c411 -3 425 -4 453 -24 15 -11 36 -36 45 -55 17 -32
18 -151 18 -2060 l0 -2026 -23 -34 c-12 -19 -38 -42 -57 -51 -33 -17 -141 -18
-1840 -18 -1699 0 -1807 1 -1840 18 -19 9 -45 32 -57 51 l-23 34 0 2024 c0
2164 -2 2062 48 2106 11 10 33 22 48 27 16 4 230 9 477 9 l447 1 0 -85z m0
-304 c0 -66 13 -97 49 -116 26 -13 134 -15 900 -15 l869 0 31 25 c27 23 30 33
33 88 l3 62 298 3 297 2 0 -1364 0 -1365 -399 -3 -399 -3 -26 -24 -26 -24 -2
-401 -3 -401 -1152 -3 -1153 -2 0 1795 0 1795 340 0 340 0 0 -49z m2350 -2864
c0 -1 -124 -126 -275 -277 l-275 -275 0 278 0 277 275 0 c151 0 275 -1 275 -3z"/>
<path d="M2565 4768 c-41 -24 -44 -37 -45 -204 0 -147 2 -162 20 -182 27 -29
63 -37 96 -20 49 23 55 48 52 216 l-3 154 -28 24 c-30 26 -61 30 -92 12z"/>
<path d="M1695 3654 c-40 -8 -110 -33 -165 -60 -171 -85 -305 -249 -356 -434
-28 -104 -24 -273 9 -375 122 -372 513 -568 878 -441 95 33 169 79 244 151
279 268 283 696 10 971 -165 166 -388 234 -620 188z m248 -169 c121 -25 227
-94 303 -197 103 -141 127 -323 64 -490 -41 -108 -157 -229 -267 -278 -73 -32
-119 -41 -213 -41 -145 0 -258 48 -360 152 -109 110 -163 272 -141 422 30 212
190 388 395 432 81 18 137 18 219 0z"/>
<path d="M1779 3301 c-28 -29 -29 -32 -29 -130 l0 -101 -99 0 c-91 0 -102 -2
-127 -24 -36 -30 -39 -86 -6 -119 20 -19 35 -22 127 -25 l105 -4 0 -99 c0 -93
2 -102 25 -124 16 -17 35 -25 60 -25 25 0 44 8 60 25 23 22 25 31 25 125 l0
100 89 0 c49 0 101 4 116 10 34 13 59 69 46 104 -18 45 -47 56 -153 56 l-98 0
0 101 c0 98 -1 101 -29 130 -18 17 -40 29 -56 29 -16 0 -38 -12 -56 -29z"/>
<path d="M2715 3555 c-32 -31 -32 -75 -1 -112 24 -28 25 -28 146 -28 l122 0
25 29 c20 24 24 36 19 65 -10 62 -31 71 -168 71 -113 0 -120 -1 -143 -25z"/>
<path d="M3225 3555 c-32 -31 -32 -75 -1 -112 l24 -28 290 0 290 0 26 24 c35
33 35 83 1 116 l-24 25 -291 0 -291 0 -24 -25z"/>
<path d="M2721 3135 c-40 -34 -43 -84 -6 -120 l24 -25 291 0 291 0 24 25 c32
31 32 75 1 112 l-24 28 -285 3 -284 3 -32 -26z"/>
<path d="M3590 3147 c-54 -27 -63 -94 -20 -137 18 -18 34 -20 140 -20 115 0
122 1 145 25 37 36 34 86 -6 119 -28 24 -37 26 -132 26 -62 0 -112 -5 -127
-13z"/>
<path d="M2715 2705 c-25 -24 -32 -65 -19 -100 13 -33 59 -45 169 -45 104 0
107 1 136 29 17 18 29 40 29 56 0 16 -12 38 -29 56 -29 29 -31 29 -146 29
-110 0 -117 -1 -140 -25z"/>
<path d="M3244 2718 c-24 -11 -44 -48 -44 -79 0 -11 13 -34 30 -50 l29 -30
292 3 291 3 19 24 c27 33 25 86 -6 116 l-24 25 -283 -1 c-173 0 -291 -4 -304
-11z"/>
<path d="M2715 2275 c-32 -31 -32 -75 -1 -112 l24 -28 292 0 292 0 24 28 c31
37 31 81 -1 112 l-24 25 -291 0 -291 0 -24 -25z"/>
<path d="M3570 2280 c-27 -27 -34 -64 -18 -96 21 -46 51 -55 170 -52 97 3 109
5 132 27 35 33 35 83 1 116 -23 24 -30 25 -145 25 -106 0 -122 -2 -140 -20z"/>
<path d="M1271 1854 c-40 -33 -43 -83 -6 -119 24 -25 25 -25 230 -25 191 0
206 1 225 20 28 28 36 69 19 99 -26 46 -50 51 -251 51 -186 0 -187 0 -217 -26z"/>
<path d="M1974 1870 c-55 -22 -70 -95 -29 -135 l24 -25 506 0 c489 0 506 1
525 20 43 43 34 110 -20 137 -29 15 -970 18 -1006 3z"/>
<path d="M3254 1870 c-55 -22 -70 -95 -29 -135 l24 -25 291 0 291 0 24 25 c37
36 34 86 -6 119 l-31 26 -271 -1 c-150 0 -282 -4 -293 -9z"/>
<path d="M1265 1425 c-31 -30 -33 -83 -6 -116 l19 -24 505 -3 505 -3 28 24
c39 34 39 90 0 123 l-27 24 -500 0 -500 0 -24 -25z"/>
<path d="M2545 1425 c-31 -30 -33 -83 -6 -116 19 -24 22 -24 225 -27 l206 -3
30 30 c39 38 39 74 1 112 l-29 29 -202 0 c-200 0 -201 0 -225 -25z"/>
<path d="M1265 995 c-34 -33 -34 -83 1 -116 25 -24 27 -24 231 -24 l205 0 25
29 c20 24 24 36 19 65 -10 68 -23 71 -253 71 -203 0 -204 0 -228 -25z"/>
<path d="M1945 995 c-32 -31 -32 -75 -1 -112 l24 -28 507 0 507 0 25 29 c20
24 24 36 19 65 -11 74 12 71 -553 71 l-504 0 -24 -25z"/>
</g>
</svg>
