<?xml version="1.0" standalone="no"?>
<!DOCTYPE svg PUBLIC "-//W3C//DTD SVG 20010904//EN"
 "http://www.w3.org/TR/2001/REC-SVG-20010904/DTD/svg10.dtd">
<svg version="1.0" xmlns="http://www.w3.org/2000/svg"
 width="512.000000pt" height="512.000000pt" viewBox="0 0 512.000000 512.000000"
 preserveAspectRatio="xMidYMid meet">

<g transform="translate(0.000000,512.000000) scale(0.100000,-0.100000)"
fill="#000000" stroke="none">
<path d="M2335 4948 c-441 -38 -909 -229 -1276 -518 -257 -203 -489 -492 -643
-801 -119 -239 -194 -480 -232 -744 -22 -148 -24 -478 -5 -615 76 -549 309
-1028 686 -1405 654 -655 1641 -878 2502 -564 l83 30 57 -33 c260 -151 549
-178 826 -78 251 91 476 316 567 567 99 275 72 571 -75 822 l-36 61 31 87
c218 618 179 1278 -111 1863 -124 250 -262 443 -454 635 -192 193 -382 328
-640 456 -396 195 -835 277 -1280 237z m550 -173 c642 -99 1196 -453 1547
-990 178 -272 293 -572 345 -905 25 -161 25 -493 -1 -645 -17 -107 -74 -342
-95 -398 l-11 -28 -62 52 c-35 28 -64 55 -66 60 -2 4 6 38 17 76 79 262 101
609 56 883 -73 443 -274 838 -585 1150 -635 634 -1613 791 -2410 384 -764
-390 -1215 -1210 -1130 -2055 88 -875 711 -1599 1559 -1814 192 -48 282 -59
511 -59 230 0 319 11 510 61 52 14 104 27 115 29 15 3 33 -12 72 -60 29 -36
49 -67 45 -69 -35 -22 -265 -78 -417 -103 -135 -22 -495 -25 -620 -5 -369 59
-644 162 -929 348 -853 556 -1225 1631 -895 2589 232 674 736 1178 1408 1405
170 58 302 85 551 113 72 8 389 -4 485 -19z m-144 -295 c578 -59 1088 -364
1410 -844 306 -455 403 -1019 268 -1551 -12 -44 -22 -82 -24 -83 -2 -2 -37 8
-77 22 -357 123 -728 38 -994 -228 -266 -266 -351 -637 -228 -994 14 -40 24
-75 22 -77 -1 -2 -39 -12 -83 -24 -703 -179 -1457 55 -1927 598 -668 771 -629
1907 88 2625 408 408 979 613 1545 556z m1449 -2584 c152 -41 271 -108 374
-212 359 -359 296 -956 -131 -1234 -311 -204 -727 -161 -992 101 -161 159
-236 340 -236 569 0 174 36 297 125 433 120 185 307 310 525 353 85 16 257 12
335 -10z"/>
<path d="M2505 4375 c-24 -23 -25 -31 -25 -135 0 -104 1 -112 25 -135 15 -16
36 -25 55 -25 19 0 40 9 55 25 24 23 25 31 25 135 0 104 -1 112 -25 135 -15
16 -36 25 -55 25 -19 0 -40 -9 -55 -25z"/>
<path d="M1621 4134 c-29 -37 -27 -57 15 -133 61 -112 79 -131 124 -131 30 0
43 6 59 26 29 37 27 57 -15 133 -61 112 -79 131 -124 131 -30 0 -43 -6 -59
-26z"/>
<path d="M3376 4128 c-38 -51 -96 -162 -96 -185 0 -11 9 -32 21 -47 16 -20 29
-26 59 -26 45 0 63 19 124 131 42 76 44 96 15 133 -16 20 -29 26 -59 26 -32 0
-43 -6 -64 -32z"/>
<path d="M2505 3815 l-25 -24 0 -459 0 -459 -65 -32 c-119 -59 -184 -175 -172
-307 l6 -62 -162 -92 c-220 -126 -227 -132 -227 -180 0 -30 6 -43 26 -59 15
-12 37 -21 49 -21 12 0 105 48 206 106 179 103 185 105 209 90 104 -64 123
-70 210 -70 67 0 95 5 130 22 71 34 113 75 151 144 31 57 34 71 34 143 0 65
-5 90 -26 136 -33 70 -87 125 -156 156 l-53 24 0 460 0 460 -25 24 c-15 16
-36 25 -55 25 -19 0 -40 -9 -55 -25z m118 -1109 c103 -43 128 -177 48 -257
-65 -65 -157 -65 -222 0 -124 123 13 325 174 257z"/>
<path d="M986 3499 c-20 -16 -26 -29 -26 -59 0 -44 18 -61 131 -124 76 -42 96
-44 133 -15 20 16 26 29 26 59 0 45 -19 63 -131 124 -76 42 -96 44 -133 15z"/>
<path d="M3986 3475 c-106 -60 -116 -70 -116 -116 0 -29 6 -42 26 -58 37 -29
57 -27 133 15 112 61 131 79 131 124 0 30 -6 43 -26 59 -38 30 -60 27 -148
-24z"/>
<path d="M745 2615 c-16 -15 -25 -36 -25 -55 0 -19 9 -40 25 -55 23 -24 31
-25 135 -25 104 0 112 1 135 25 16 15 25 36 25 55 0 19 -9 40 -25 55 -23 24
-31 25 -135 25 -104 0 -112 -1 -135 -25z"/>
<path d="M4105 2615 c-16 -15 -25 -36 -25 -55 0 -19 9 -40 25 -55 23 -24 31
-25 135 -25 104 0 112 1 135 25 16 15 25 36 25 55 0 19 -9 40 -25 55 -23 24
-31 25 -135 25 -104 0 -112 -1 -135 -25z"/>
<path d="M1075 1794 c-106 -60 -115 -69 -115 -115 0 -29 6 -42 26 -58 37 -29
57 -27 133 15 112 61 131 79 131 124 0 30 -6 43 -26 59 -38 30 -59 26 -149
-25z"/>
<path d="M1696 1218 c-38 -51 -96 -162 -96 -185 0 -11 9 -32 21 -47 16 -20 29
-26 59 -26 45 0 63 19 124 131 42 76 44 96 15 133 -16 20 -29 26 -59 26 -32 0
-43 -6 -64 -32z"/>
<path d="M2505 1015 c-24 -23 -25 -31 -25 -135 0 -104 1 -112 25 -135 15 -16
36 -25 55 -25 19 0 40 9 55 25 24 23 25 31 25 135 0 104 -1 112 -25 135 -15
16 -36 25 -55 25 -19 0 -40 -9 -55 -25z"/>
<path d="M3600 1507 c-49 -16 -133 -102 -148 -153 -22 -75 -12 -146 30 -206
19 -28 19 -28 0 -55 -67 -97 -54 -211 33 -298 102 -103 243 -101 338 5 79 88
89 200 25 293 -19 27 -19 27 0 55 64 92 54 204 -25 292 -65 72 -158 97 -253
67z m135 -172 c50 -49 15 -135 -55 -135 -41 0 -80 39 -80 80 0 41 39 80 80 80
19 0 40 -9 55 -25z m0 -320 c50 -49 15 -135 -55 -135 -41 0 -80 39 -80 80 0
41 39 80 80 80 19 0 40 -9 55 -25z"/>
<path d="M4105 1495 l-25 -24 0 -351 0 -351 25 -24 c32 -33 78 -33 110 0 24
23 25 28 25 175 0 147 1 152 25 175 15 16 36 25 55 25 19 0 40 -9 55 -25 24
-23 25 -28 25 -175 0 -147 1 -152 25 -175 15 -16 36 -25 55 -25 19 0 40 9 55
25 24 23 25 28 25 178 0 181 -10 221 -72 284 -53 54 -119 78 -194 70 l-54 -6
0 100 c0 93 -2 102 -25 124 -15 16 -36 25 -55 25 -19 0 -40 -9 -55 -25z"/>
</g>
</svg>
