<?xml version="1.0" standalone="no"?>
<!DOCTYPE svg PUBLIC "-//W3C//DTD SVG 20010904//EN"
 "http://www.w3.org/TR/2001/REC-SVG-20010904/DTD/svg10.dtd">
<svg version="1.0" xmlns="http://www.w3.org/2000/svg"
 width="512.000000pt" height="512.000000pt" viewBox="0 0 512.000000 512.000000"
 preserveAspectRatio="xMidYMid meet">

<g transform="translate(0.000000,512.000000) scale(0.100000,-0.100000)"
fill="#000000" stroke="none">
<path d="M705 5105 c-51 -18 -120 -91 -134 -141 -6 -21 -11 -87 -11 -146 l0
-108 -155 0 c-131 0 -163 -3 -209 -20 -72 -28 -138 -87 -167 -152 l-24 -53 0
-1680 0 -1680 28 -57 c34 -69 91 -121 164 -148 52 -20 77 -20 1047 -20 l994 0
12 -30 c25 -60 121 -214 184 -293 259 -329 629 -528 1055 -568 359 -34 739 76
1036 300 77 58 228 209 286 286 120 159 211 348 259 538 164 650 -110 1314
-685 1663 -44 27 -99 58 -122 68 l-43 19 -2 806 -3 806 -23 45 c-32 61 -77
107 -137 138 -48 26 -58 27 -222 30 l-173 4 0 117 c0 106 -3 122 -26 169 -66
133 -241 161 -348 55 -53 -52 -66 -95 -66 -225 l0 -118 -1109 0 -1109 0 -4
133 c-3 130 -3 133 -35 179 -59 83 -162 117 -258 83z m103 -171 c22 -15 22
-17 22 -309 l0 -295 -24 -15 c-27 -18 -59 -9 -70 20 -3 9 -6 142 -6 296 0 265
1 280 20 299 24 24 29 24 58 4z m2660 0 c22 -15 22 -17 22 -309 0 -292 0 -294
-22 -309 -29 -20 -34 -20 -58 4 -19 19 -20 33 -20 305 0 272 1 286 20 305 24
24 29 24 58 4z m-2908 -501 c0 -60 5 -126 11 -148 16 -56 91 -129 149 -145 93
-25 196 14 248 93 25 39 27 51 30 175 l4 132 1109 0 1109 0 0 -117 c0 -133 13
-175 70 -230 104 -102 274 -74 342 56 26 50 28 61 28 172 l0 119 143 0 c162 0
197 -11 229 -71 16 -30 18 -62 18 -331 l0 -298 -1941 0 -1940 0 3 308 c3 289
4 309 23 334 37 49 67 57 223 57 l142 1 0 -107z m3490 -1129 l0 -356 -22 6
c-64 17 -222 45 -293 52 -44 4 -73 9 -65 12 8 2 25 14 38 25 22 20 22 25 22
244 l0 224 -26 24 c-27 25 -27 25 -243 25 -243 0 -252 -2 -271 -68 -13 -49
-13 -366 1 -415 15 -54 50 -67 191 -68 108 -1 110 -2 48 -10 -92 -11 -243 -47
-315 -74 l-62 -24 -22 22 c-21 21 -29 22 -246 22 -293 0 -269 20 -273 -233
l-3 -187 -28 -30 c-16 -16 -51 -61 -79 -98 l-51 -68 -231 1 -230 1 -25 -25
-25 -25 0 -221 0 -221 25 -24 c23 -24 30 -25 146 -25 l122 0 -7 -52 c-25 -211
-17 -398 25 -576 10 -46 19 -85 19 -88 0 -2 -425 -4 -945 -4 -1064 0 -996 -5
-1035 75 -20 41 -20 62 -20 1278 l0 1237 1940 0 1940 0 0 -356z m-490 -14 l0
-100 -100 0 -100 0 0 100 0 100 100 0 100 0 0 -100z m297 -476 c449 -78 851
-418 1008 -852 130 -361 96 -780 -90 -1106 -431 -756 -1433 -910 -2072 -319
-388 359 -523 945 -332 1443 178 464 606 794 1104 850 97 11 271 4 382 -16z
m-1117 -84 c-29 -22 -55 -40 -57 -40 -2 0 -3 18 -3 40 l0 40 57 0 57 0 -54
-40z m-530 -630 c0 -33 -7 -78 -16 -100 l-16 -40 -84 0 -84 0 0 100 0 100 100
0 100 0 0 -60z"/>
<path d="M1866 3534 l-26 -27 0 -222 0 -222 26 -24 c25 -24 29 -24 229 -27
240 -4 267 2 284 65 6 21 11 118 11 216 0 189 -9 235 -48 256 -13 7 -101 11
-235 11 l-214 0 -27 -26z m344 -244 l0 -100 -100 0 -100 0 0 100 0 100 100 0
100 0 0 -100z"/>
<path d="M2539 3530 l-30 -30 3 -220 c4 -291 -22 -265 273 -265 295 0 269 -26
273 265 l3 220 -30 30 -29 30 -217 0 -217 0 -29 -30z m349 -242 l3 -98 -106 0
-105 0 0 93 c0 52 3 97 7 101 4 4 50 5 103 4 l95 -3 3 -97z"/>
<path d="M544 2940 c-50 -20 -54 -39 -54 -271 l0 -216 26 -27 27 -26 218 0
c216 0 218 0 246 24 l28 24 3 199 c2 128 -1 212 -8 236 -18 61 -45 67 -272 66
-106 0 -203 -4 -214 -9z m316 -270 l0 -100 -100 0 -100 0 0 100 0 100 100 0
100 0 0 -100z"/>
<path d="M1213 2936 c-48 -22 -55 -59 -51 -289 l3 -199 28 -24 c28 -24 30 -24
246 -24 l218 0 27 26 26 27 0 218 c0 216 0 218 -24 246 l-24 28 -209 2 c-162
2 -215 0 -240 -11z m327 -266 l0 -100 -100 0 -100 0 0 100 0 100 100 0 100 0
0 -100z"/>
<path d="M1900 2943 c-8 -3 -25 -15 -37 -26 -23 -20 -23 -25 -23 -244 l0 -224
26 -24 c27 -25 27 -25 246 -25 217 0 219 0 243 24 33 33 37 67 33 277 -3 201
-8 220 -62 239 -30 10 -399 13 -426 3z m310 -273 l0 -100 -100 0 -100 0 0 100
0 100 100 0 100 0 0 -100z"/>
<path d="M515 2305 l-25 -24 0 -221 0 -221 25 -24 24 -25 224 0 224 0 24 26
c24 25 24 27 24 244 0 217 0 219 -24 244 l-24 26 -224 0 -224 0 -24 -25z m345
-245 l0 -100 -100 0 -100 0 0 100 0 100 100 0 100 0 0 -100z"/>
<path d="M1189 2304 c-24 -25 -24 -27 -24 -244 0 -217 0 -219 24 -244 l24 -26
224 0 224 0 24 25 25 24 0 221 0 221 -25 24 -24 25 -224 0 -224 0 -24 -26z
m351 -244 l0 -100 -100 0 -100 0 0 100 0 100 100 0 100 0 0 -100z"/>
<path d="M516 1694 l-26 -27 0 -218 c0 -216 0 -218 24 -246 l24 -28 199 -3
c128 -2 212 1 236 8 63 18 69 45 65 287 l-3 205 -28 24 c-28 24 -30 24 -246
24 l-218 0 -27 -26z m344 -244 l0 -100 -100 0 -100 0 0 100 0 100 100 0 100 0
0 -100z"/>
<path d="M1193 1696 l-28 -24 -3 -205 c-4 -242 2 -269 65 -287 24 -7 108 -10
236 -8 l199 3 24 28 c24 28 24 30 24 246 l0 218 -26 27 -27 26 -218 0 c-216 0
-218 0 -246 -24z m347 -246 l0 -100 -100 0 -100 0 0 100 0 100 100 0 100 0 0
-100z"/>
<path d="M3471 2690 c-249 -32 -493 -147 -675 -320 -396 -376 -487 -970 -222
-1444 175 -313 484 -531 846 -597 83 -15 295 -15 381 0 253 43 475 157 654
336 177 177 290 394 336 645 17 97 15 309 -5 415 -91 477 -462 852 -938 949
-97 20 -281 28 -377 16z m268 -175 c150 -13 343 -89 479 -189 183 -135 322
-341 384 -566 20 -74 23 -108 23 -255 -1 -213 -25 -314 -116 -483 -135 -252
-363 -428 -659 -509 -96 -26 -367 -25 -470 1 -431 110 -740 466 -778 896 -44
499 268 948 752 1080 79 22 226 40 281 34 17 -2 63 -6 104 -9z"/>
<path d="M3576 2434 c-21 -21 -20 -47 2 -67 27 -24 59 -21 78 8 15 23 15 27 0
50 -19 29 -56 33 -80 9z"/>
<path d="M3592 2188 c-9 -9 -12 -89 -12 -300 0 -158 -4 -288 -8 -288 -4 0 -26
18 -47 40 -38 39 -68 50 -80 30 -3 -5 14 -32 39 -58 25 -27 43 -52 39 -55 -3
-4 -106 -7 -228 -7 -232 0 -245 -2 -245 -45 0 -43 13 -45 243 -45 l219 0 35
-30 c35 -31 83 -39 113 -20 12 7 66 -42 252 -226 134 -135 241 -233 247 -230
6 4 11 15 11 24 0 10 -103 120 -229 246 l-228 228 5 44 c4 40 1 47 -32 80
l-36 36 0 282 c0 282 -3 306 -35 306 -6 0 -16 -5 -23 -12z m66 -641 c17 -14
15 -63 -4 -82 -24 -24 -76 -16 -90 14 -30 59 40 110 94 68z"/>
<path d="M2686 1544 c-24 -24 -20 -61 9 -80 23 -15 27 -15 50 0 30 20 33 56 7
79 -23 21 -46 22 -66 1z"/>
<path d="M4476 1544 c-24 -24 -20 -61 9 -80 23 -15 27 -15 50 0 30 20 33 56 7
79 -23 21 -46 22 -66 1z"/>
<path d="M3576 644 c-21 -21 -20 -47 2 -67 27 -24 59 -21 78 8 15 23 15 27 0
50 -19 29 -56 33 -80 9z"/>
</g>
</svg>
