<?xml version="1.0" standalone="no"?>
<!DOCTYPE svg PUBLIC "-//W3C//DTD SVG 20010904//EN"
 "http://www.w3.org/TR/2001/REC-SVG-20010904/DTD/svg10.dtd">
<svg version="1.0" xmlns="http://www.w3.org/2000/svg"
 width="512.000000pt" height="512.000000pt" viewBox="0 0 512.000000 512.000000"
 preserveAspectRatio="xMidYMid meet">

<g transform="translate(0.000000,512.000000) scale(0.100000,-0.100000)"
fill="#000000" stroke="none">
<path d="M3674 4386 c-300 -79 -521 -305 -599 -611 -29 -111 -25 -295 9 -408
33 -112 55 -155 178 -346 212 -329 611 -931 618 -931 8 0 54 68 390 580 363
553 384 589 415 723 88 379 -92 760 -440 935 -116 58 -187 74 -340 78 -124 4
-151 1 -231 -20z m328 -538 c60 -26 131 -102 152 -165 83 -244 -168 -471 -397
-359 -176 86 -222 306 -95 451 88 100 215 127 340 73z"/>
</g>
</svg>
