<?xml version="1.0" standalone="no"?>
<!DOCTYPE svg PUBLIC "-//W3C//DTD SVG 20010904//EN"
 "http://www.w3.org/TR/2001/REC-SVG-20010904/DTD/svg10.dtd">
<svg version="1.0" xmlns="http://www.w3.org/2000/svg"
 width="450.000000pt" height="450.000000pt" viewBox="0 0 450.000000 450.000000"
 preserveAspectRatio="xMidYMid meet">

<g transform="translate(0.000000,450.000000) scale(0.100000,-0.100000)"
fill="#000000" stroke="none">
<path d="M2040 3883 c-392 -63 -685 -207 -946 -468 -350 -349 -510 -771 -482
-1275 30 -564 384 -1097 898 -1355 114 -58 269 -112 403 -142 111 -24 141 -27
332 -27 181 0 224 3 315 22 350 76 637 235 881 489 275 287 431 657 446 1059
11 282 -40 528 -162 779 -161 333 -413 589 -741 753 -255 127 -457 173 -749
171 -93 -1 -181 -4 -195 -6z m375 -154 c325 -39 596 -164 854 -394 50 -44 173
-194 224 -272 328 -503 321 -1152 -17 -1648 -55 -81 -248 -295 -266 -295 -4 0
-32 37 -62 83 -163 244 -395 404 -678 468 -108 24 -316 26 -422 4 -302 -63
-554 -236 -711 -488 -23 -37 -45 -67 -49 -67 -13 0 -126 111 -181 178 -162
198 -265 413 -319 666 -31 147 -31 427 0 576 32 150 56 218 127 365 273 563
883 898 1500 824z"/>
<path d="M2090 3034 c-208 -56 -370 -211 -435 -416 -30 -96 -34 -244 -9 -342
59 -227 240 -400 473 -452 380 -85 750 214 751 607 0 235 -134 450 -347 558
-35 17 -89 38 -120 46 -73 19 -240 18 -313 -1z"/>
</g>
</svg>
